<svg  class="size-6 shrink-0 text-indigo-200 group-hover:text-white" xmlns="http://www.w3.org/2000/svg"  viewBox="0 0 45 45"><path d="M21.264,29.6837a5.966,5.966,0,0,1-4.8-4.53,6.058,6.058,0,0,1,1.9722-6.3082c.2368-.2176.2548-.3284.1045-.5788-.4733-.7879-.9238-1.59-1.3838-2.3869L16.39,14.5515c-.8869-1.5364-.8869-1.5364-2.213-.3193a12.2749,12.2749,0,0,0-3.1763,14.1245A12.1228,12.1228,0,0,0,21.308,36.0438c.3652.0467.4447-.0478.44-.3916-.0174-1.8121-.0276-3.6236-.0077-5.4353C21.7452,29.8331,21.5878,29.7565,21.264,29.6837Z"></path><path d="M29.4219,13.1715c-.974,1.6951-1.9368,3.3953-2.9329,5.08-.1977.3335-.03.4413.1748.6346a6.0583,6.0583,0,0,1,1.886,6.3347A6,6,0,0,1,23.78,29.7181c-.3827.0871-.4754.2087-.4713.5838q.0336,2.6262-.0046,5.252c-.0063.439.1115.535.5438.4839a12.5062,12.5062,0,0,0,5.5736-22.8663Z"></path><path d="M25.04,23.5961a2.4882,2.4882,0,0,0-1-1.9887V15.0961h1.168a1,1,0,0,0,.842-1.5409l-2.669-4.151a1,1,0,0,0-1.682,0l-2.669,4.151a1,1,0,0,0,.842,1.5409H21.04v6.5113a2.4962,2.4962,0,1,0,4,1.9887Z"></path></svg>
