<svg class="size-6 shrink-0 text-indigo-200 group-hover:text-white" viewBox="0 0 45 45"><path d="M22.5,10A12.5,12.5,0,1,0,35,22.5h0A12.5,12.5,0,0,0,22.5,10Zm9.329,11.579H28.548a22.49,22.49,0,0,0-.33-2.953,11.82,11.82,0,0,0,2.308-.954,9.2993,9.2993,0,0,1,1.298,3.909Zm-5.128-7.452c.133.065.262.133.391.2.2.115.4.233.594.362l.088.058A9.4917,9.4917,0,0,1,29.1,15.841l.06.06c.094.095.179.2.269.3a12.6338,12.6338,0,0,1-1.66.678A11.3943,11.3943,0,0,0,26.5,14.031c.062.031.13.063.2.097Zm-3.28,11.444V23.422h3.307a19.7445,19.7445,0,0,1-.283,2.5,20.3629,20.3629,0,0,0-3.028-.351Zm2.575,2.127a6.8617,6.8617,0,0,1-2.575,3.945V27.391a17.4553,17.4553,0,0,1,2.571.307Zm-2.575-6.119v-2.15a20.366,20.366,0,0,0,3.024-.354,20.2387,20.2387,0,0,1,.283,2.5Zm0-3.969V13.358a6.67,6.67,0,0,1,2.575,3.946,17.8414,17.8414,0,0,1-2.579.306Zm-1.843,5.812v2.149a20.7251,20.7251,0,0,0-3.024.355,20.26,20.26,0,0,1-.2839-2.5ZM18.27,21.579a19.7259,19.7259,0,0,1,.284-2.5,20.7236,20.7236,0,0,0,3.024.354v2.15Zm3.308,5.811v4.229a6.6674,6.6674,0,0,1-2.575-3.945,22.5482,22.5482,0,0,1,2.571-.284Zm0-9.8a17.4415,17.4415,0,0,1-2.575-.307,6.8682,6.8682,0,0,1,2.575-3.922Zm-3.1-3.546a13.3906,13.3906,0,0,0-1.251,2.815,9.86,9.86,0,0,1-1.645-.671,9.3725,9.3725,0,0,1,2.896-2.148Zm-1.676,4.587a19.7553,19.7553,0,0,0-.355,2.953h-3.28a9.3353,9.3353,0,0,1,.631-2.568c.033-.08.062-.161.1-.24.0751-.173.16-.341.245-.508.067-.132.134-.261.207-.389.041-.071.085-.14.128-.21a11.8086,11.8086,0,0,0,2.322.957Zm-3.635,4.8h3.28a22.56,22.56,0,0,0,.331,2.953,11.7753,11.7753,0,0,0-2.308.954,9.3169,9.3169,0,0,1-1.303-3.916Zm4.06,4.7a11.3789,11.3789,0,0,0,1.269,2.847c-.068-.032-.135-.063-.2-.1q-.2-.1-.39-.2c-.2-.114-.4-.233-.594-.361l-.089-.059a9.3559,9.3559,0,0,1-1.325-1.094l-.06-.06c-.094-.095-.179-.2-.269-.3a12.37,12.37,0,0,1,1.658-.681Zm9.286,2.838a13.4032,13.4032,0,0,0,1.251-2.815,9.9971,9.9971,0,0,1,1.645.67,9.4008,9.4008,0,0,1-2.896,2.137Zm1.676-4.587a19.77,19.77,0,0,0,.354-2.953h3.281a9.2884,9.2884,0,0,1-.632,2.567c-.032.08-.062.161-.1.24-.0759.173-.16.342-.245.509-.0669.131-.134.261-.207.388-.0409.072-.0849.141-.1279.211a12.4008,12.4008,0,0,0-2.3231-.969Z"></path></svg>
