<svg class="size-6 shrink-0 text-indigo-200 group-hover:text-white"   viewBox="0 0 45 45"><path d="M11.52,22.5217V11.7507a1.5519,1.5519,0,0,1,1.71-1.752h14.758a2.8163,2.8163,0,0,1,2.12.882c.774.792,1.554,1.577,2.327,2.37a3.5546,3.5546,0,0,1,1.048,2.595q-.017,8.688-.006,17.376a1.5642,1.5642,0,0,1-1.751,1.776H13.1994a1.523,1.523,0,0,1-1.679-1.7Zm2.732-.042v9.437c0,.2.009.3.261.3q7.9232-.012,15.8441,0c.212,0,.261-.061.261-.27q-.009-6.6711,0-13.342c0-.235-.066-.281-.283-.279-1.224.011-2.449.007-3.673.005a1.321,1.321,0,0,1-1.5-1.509c0-1.236-.009-2.473.006-3.709,0-.276-.077-.336-.336-.335q-5.127.012-10.254,0c-.258,0-.335.05-.334.33C14.2574,16.23,14.2524,19.3537,14.2524,22.48Zm15-6.93c.34,0,.681.008,1.021-.005.11-.005.269.09.329-.082s-.06-.257-.16-.358q-.9279-.94-1.851-1.884c-.113-.115-.23-.226-.337-.346a.2777.2777,0,0,0-.291-.084c-.139.032-.083.158-.084.244,0,.758,0,1.517-.006,2.275,0,.18.043.25.23.244.384-.016.767-.006,1.15-.006Z"></path><path d="M23.7884,24.5957c0,1.518-.006,3.035.006,4.552,0,.248-.065.309-.3.3-.723-.017-1.4469-.013-2.17,0-.195,0-.253-.055-.253-.255q.009-4.617,0-9.233c0-.2.059-.257.253-.254.723.011,1.447.015,2.17,0,.239-.005.3.059.3.305C23.7824,21.54,23.7884,23.0677,23.7884,24.5957Z"></path><path d="M27.8784,25.2627c0,1.29-.007,2.58.007,3.87,0,.264-.076.325-.322.319-.712-.016-1.4259-.014-2.138,0-.211,0-.268-.059-.2669-.274q.01-3.9,0-7.805c0-.224.074-.266.2719-.263.724.011,1.448.014,2.1711,0,.221,0,.286.053.284.285C27.8724,22.68,27.8784,23.9727,27.8784,25.2627Z"></path><path d="M19.6994,25.98c0,1.052-.01,2.1.006,3.156.005.267-.081.322-.323.316-.7-.015-1.405-.017-2.107,0-.248.006-.3-.075-.3-.312q.0141-3.1881,0-6.375c0-.2.037-.28.257-.275.734.015,1.468.013,2.2,0,.207,0,.266.053.264.267C19.6934,23.8317,19.6994,24.9057,19.6994,25.98Z"></path></svg>
