<svg class="size-6 shrink-0 text-indigo-200 group-hover:text-white" viewBox="0 0 45 45"><g opacity="0.8"><g><path d="M21.7149,13.1246c0,.92-.011,1.84.005,2.759.005.292-.066.379-.38.449a6.0579,6.0579,0,0,0-4.862,4.477,5.9661,5.9661,0,0,0,1.892,6.323c.244.225.342.37.146.7-.923,1.559-1.82,3.133-2.711,4.711-.168.3-.284.342-.577.119a12.1231,12.1231,0,0,1-5.083-11.811,12.275,12.275,0,0,1,9.813-10.644c1.757-.391,1.757-.391,1.757,1.383Z"></path><path d="M33.6909,16.9115a12.4993,12.4993,0,0,1-16.26,17.016c-.4-.172-.454-.3139-.229-.6909q1.3461-2.2551,2.63-4.5461c.184-.3269.325-.386.7-.27a6,6,0,0,0,6.379-1.51,6.0578,6.0578,0,0,0,1.534-6.429c-.081-.27-.172-.447.166-.6369C30.3159,18.8835,32,17.8925,33.6909,16.9115Z"></path></g><circle cx="27.4769" cy="13.9985" r="3"></circle></g></svg>
