<svg id="Layer_1" class="SNpXUviYYtRhUgIYb3Dj" width="45" height="45" viewBox="0 0 45 45"><g><path d="M21.7149,13.1261c0,.92-.011,1.84.005,2.759.005.292-.066.379-.38.449a6.0581,6.0581,0,0,0-4.862,4.477,5.966,5.966,0,0,0,1.892,6.323c.244.225.342.37.146.7-.923,1.559-1.82,3.133-2.711,4.711-.168.3-.284.342-.577.119a12.1229,12.1229,0,0,1-5.083-11.811,12.275,12.275,0,0,1,9.813-10.644c1.757-.391,1.757-.391,1.757,1.383Z"></path><path d="M33.6909,16.9131a12.4993,12.4993,0,0,1-16.26,17.016c-.4-.172-.454-.314-.229-.691q1.3461-2.255,2.63-4.546c.184-.327.325-.386.7-.27a6,6,0,0,0,6.379-1.51,6.0578,6.0578,0,0,0,1.534-6.429c-.081-.27-.172-.447.166-.637C30.3159,18.8851,32,17.8941,33.6909,16.9131Z"></path><path d="M23.3019,13.1091c0-.9.007-1.8-.005-2.7,0-.285.017-.438.387-.4a12.4062,12.4062,0,0,1,9.077,5.272c.156.213.086.294-.107.4q-2.465,1.414-4.92,2.848a.294.294,0,0,1-.415-.0257.2992.2992,0,0,1-.039-.0563,6.0131,6.0131,0,0,0-3.74-2.138c-.3-.05-.236-.218-.236-.386C23.3,14.99,23.3019,14.0491,23.3019,13.1091Z"></path></g></svg>
